<svg width="828" height="234" viewBox="0 0 1656 468" xmlns="http://www.w3.org/2000/svg">
<g fill="#000000" stroke="none" fill-rule="evenodd">
<path d="M391 468 L317.498 394.913 C317.498 394.913 280 428 207 428 C89.7 428 0 335.267 0 214 C0 92.7334 89.7 0 207 0 C324.3 0 414 92.7333 414 214 C413.667 271 392.495 309.074 392.495 309.074 L471.418 387.582 L391 468 M207 321 C148.633 321 104 274.633 104 214 C104 153.367 148.633 107 207 107 C265.933 107 311 153.367 311 214 C311 274.633 265.934 321 207 321"/>
<path d="M626 430 C531.933 430 460 350.267 460 246 V4 H559.6 V244.455 C559.6 291.559 590.587 332.775 626 332.775 C661.413 332.775 692.4 291.559 692.4 244.455 V4 H792 V246 C792 350.267 720.067 430 626 430"/>
<path d="M822 430 V4 H971.72 C1013.81 4 1098 46.6666 1098 132 C1098 180.167 1059.53 217 1059.53 217 C1059.53 217 1098 253.833 1098 302 C1098 387.333 1013.81 430 971.722 430 H822 M920 90 H943.881 C969.136 90 998 107.879 998 131 C998 154.121 969.136 172 943.881 172 H920 V90 M920 262 H943.881 C969.136 262 998 279.879 998 303 C998 326.121 969.136 344 943.881 344 H920 Z"/>
<path d="M1140 432 V4 H1252 V432 Z"/>
<path d="M1416 432 V114 H1286 V4 H1656 V114 H1528 V432 Z"/>
</g>
</svg>
