<svg width="828" height="982" viewBox="0 0 1656 1964" xmlns="http://www.w3.org/2000/svg">
<g fill="#000000" stroke="none" fill-rule="evenodd">
<path d="M1135 941L1427 1111L808 1468L170 1099V369L808 0L1427 357L1135 527L808 338L465 537V931L808 1129z"/>
<path d="M1445 387V1081L1150 912V556z"/>
<path d="M808 1094L514 924 L843 734L514 544L808 374L1120 556V912z"/>
<path d="M773 734L496 572V896"/>
<path d="M391 1964L317.498 1890.913C317.498 1890.913 280 1924 207 1924C89.7 1924 0 1831.267 0 1710C0 1588.7334 89.7 1496 207 1496C324.3 1496 414 1588.7333 414 1710C413.667 1767 392.495 1805.074 392.495 1805.074L471.418 1883.582L391 1964M207 1817C148.633 1817 104 1770.633 104 1710C104 1649.367 148.633 1603 207 1603C265.933 1603 311 1649.367 311 1710C311 1770.633 265.934 1817 207 1817"/>
<path d="M626 1926C531.933 1926 460 1846.267 460 1742V1500H559.6V1740.455C559.6 1787.559 590.587 1828.775 626 1828.775C661.413 1828.775 692.4 1787.559 692.4 1740.455V1500H792V1742C792 1846.267 720.067 1926 626 1926"/>
<path d="M822 1926V1500H971.72C1013.81 1500 1098 1542.6666 1098 1628C1098 1676.167 1059.53 1713 1059.53 1713C1059.53 1713 1098 1749.833 1098 1798C1098 1883.333 1013.81 1926 971.722 1926H822M920 1586H943.881C969.136 1586 998 1603.879 998 1627C998 1650.121 969.136 1668 943.881 1668H920V1586M920 1758H943.881C969.136 1758 998 1775.879 998 1799C998 1822.121 969.136 1840 943.881 1840H920z"/>
<path d="M1140 1928V1500H1252V1928z"/>
<path d="M1416 1928V1610H1286V1500H1656V1610H1528V1928z"/>
</g>
</svg>
